<svg width="471" height="162" viewBox="0 0 471 162" fill="none" xmlns="http://www.w3.org/2000/svg">
<path d="M97.493 97.4927L64.5073 130.478L94.9943 160.965C96.3738 162.345 98.6121 162.345 99.9917 160.965L130.479 130.478L97.493 97.4927Z" fill="#F78C50"/>
<path d="M130.479 64.5071L97.4936 97.4928L130.479 130.478L163.465 97.4928L130.479 64.5071Z" fill="#F78C50"/>
<path d="M64.5086 64.5071L31.5229 97.4928L64.5086 130.478L97.4943 97.4928L64.5086 64.5071Z" fill="#F78C50"/>
<path opacity="0.35" d="M130.479 64.5071L97.4936 97.4928L130.479 130.478L163.465 97.4928L130.479 64.5071Z" fill="#DA353B"/>
<path opacity="0.35" d="M64.5086 64.5071L31.5229 97.4928L64.5086 130.478L97.4943 97.4928L64.5086 64.5071Z" fill="#DA353B"/>
<path d="M127.981 1.03516L97.4936 31.5217L130.479 64.5074L163.465 31.5217L132.978 1.03516C131.598 -0.345054 129.36 -0.345054 127.981 1.03516Z" fill="#DA353B"/>
<path d="M62.01 1.03516L31.5229 31.5217L64.5086 64.5074L97.4943 31.5217L67.0073 1.03516C65.6278 -0.345054 63.3895 -0.345054 62.01 1.03516Z" fill="#DA353B"/>
<path d="M163.465 31.5215L130.479 64.5072L163.465 97.4929L193.952 67.0059C195.331 65.6263 195.331 63.388 193.952 62.0085L163.465 31.5215Z" fill="#F78C50"/>
<path d="M31.5217 31.5215L1.03516 62.0085C-0.345054 63.388 -0.345054 65.6263 1.03516 67.0059L31.5217 97.4929L64.5074 64.5072L31.5217 31.5215Z" fill="#F78C50"/>
<path d="M97.493 31.5215L64.5073 64.5072L97.493 97.4929L130.479 64.5072L97.493 31.5215Z" fill="#F78C50"/>
<path opacity="0.7" d="M163.465 31.5215L130.479 64.5072L163.465 97.4929L193.952 67.0059C195.331 65.6263 195.331 63.388 193.952 62.0085L163.465 31.5215Z" fill="#DA353B"/>
<path opacity="0.7" d="M31.5217 31.5215L1.03516 62.0085C-0.345054 63.388 -0.345054 65.6263 1.03516 67.0059L31.5217 97.4929L64.5074 64.5072L31.5217 31.5215Z" fill="#DA353B"/>
<path opacity="0.7" d="M97.4515 31.5956L64.4658 64.5813L97.4515 97.567L130.437 64.5813L97.4515 31.5956Z" fill="#DA353B"/>
<path d="M188.897 102.215L161.122 129.99C160.202 130.91 160.202 132.401 161.122 133.321L188.897 161.096C189.817 162.016 191.308 162.016 192.228 161.096L220.004 133.321C220.924 132.401 220.924 130.91 220.004 129.99L192.228 102.215C191.308 101.295 189.817 101.295 188.897 102.215Z" fill="#DA353B"/>
<path d="M188.897 102.215L161.122 129.99C160.202 130.91 160.202 132.401 161.122 133.321L188.897 161.096C189.817 162.016 191.308 162.016 192.228 161.096L220.004 133.321C220.924 132.401 220.924 130.91 220.004 129.99L192.228 102.215C191.308 101.295 189.817 101.295 188.897 102.215Z" fill="#DA353B"/>
<path d="M279.375 23.156H298.538V41.2385C296.365 43.4934 293.649 45.2713 290.39 46.5722C287.175 47.8731 283.937 48.5236 280.678 48.5236C276.463 48.5236 272.531 47.4829 268.881 45.4014C265.274 43.2766 262.385 40.4363 260.212 36.8805C258.083 33.3247 257.018 29.4871 257.018 25.3676C257.018 21.248 258.083 17.4104 260.212 13.8546C262.385 10.2988 265.274 7.48018 268.881 5.39874C272.531 3.31729 276.463 2.27657 280.678 2.27657C283.981 2.27657 287.24 2.92702 290.455 4.22793C293.671 5.52882 296.365 7.28504 298.538 9.49657L292.737 14.8953C291.346 13.2909 289.543 12.0333 287.327 11.1227C285.111 10.1687 282.895 9.69171 280.678 9.69171C277.941 9.69171 275.377 10.4072 272.987 11.8382C270.641 13.2692 268.772 15.1988 267.382 17.6272C265.991 20.0122 265.296 22.5923 265.296 25.3676C265.296 28.1862 265.991 30.8097 267.382 33.238C268.772 35.623 270.641 37.531 272.987 38.962C275.377 40.393 277.941 41.1084 280.678 41.1084C282.373 41.1084 284.089 40.8266 285.828 40.2629C287.609 39.6991 289.195 38.8969 290.586 37.8562V29.7906H279.375V23.156Z" fill="#3B0024"/>
<path d="M305.608 14.1148H313.56V47.743H305.608V14.1148ZM309.584 9.04126C308.324 9.04126 307.237 8.58594 306.325 7.67531C305.456 6.76468 305.021 5.70228 305.021 4.48811C305.021 3.27393 305.456 2.23321 306.325 1.36594C307.237 0.455314 308.324 0 309.584 0C310.8 0 311.843 0.455314 312.712 1.36594C313.581 2.23321 314.016 3.27393 314.016 4.48811C314.016 5.70228 313.581 6.76468 312.712 7.67531C311.843 8.58594 310.8 9.04126 309.584 9.04126Z" fill="#3B0024"/>
<path d="M318.471 14.1148H326.879L336.656 38.5717L346.238 14.1148H354.711L340.437 47.743H332.941L318.471 14.1148Z" fill="#3B0024"/>
<path d="M359.649 14.1148H367.601V47.743H359.649V14.1148ZM363.625 9.04126C362.365 9.04126 361.278 8.58594 360.366 7.67531C359.497 6.76468 359.062 5.70228 359.062 4.48811C359.062 3.27393 359.497 2.23321 360.366 1.36594C361.278 0.455314 362.365 0 363.625 0C364.841 0 365.884 0.455314 366.753 1.36594C367.622 2.23321 368.057 3.27393 368.057 4.48811C368.057 5.70228 367.622 6.76468 366.753 7.67531C365.884 8.58594 364.841 9.04126 363.625 9.04126Z" fill="#3B0024"/>
<path d="M393.37 13.3342C395.803 13.3342 397.976 13.898 399.888 15.0254C401.8 16.1095 403.277 17.6489 404.32 19.6436C405.406 21.5949 405.949 23.8282 405.949 26.3432V47.743H398.193V27.9043C398.193 25.6061 397.52 23.7414 396.172 22.3104C394.869 20.8361 393.174 20.0989 391.088 20.0989C388.785 20.0989 386.852 20.8144 385.287 22.2454C383.723 23.633 382.941 25.3459 382.941 27.3839V47.743H374.989V14.1148H382.941V18.5378C383.984 16.9334 385.418 15.6758 387.243 14.7652C389.111 13.8112 391.154 13.3342 393.37 13.3342Z" fill="#3B0024"/>
<path d="M445.716 14.1148V44.1656C445.716 47.0275 444.956 49.5643 443.435 51.7758C441.957 54.0307 439.871 55.7869 437.177 57.0445C434.527 58.302 431.507 58.9308 428.117 58.9308C425.293 58.9308 422.599 58.5188 420.035 57.6949C417.471 56.871 415.342 55.7869 413.647 54.4427L416.58 48.6537C417.754 49.7378 419.253 50.5833 421.078 51.1904C422.946 51.8409 424.88 52.1661 426.879 52.1661C430.181 52.1661 432.81 51.4289 434.766 49.9546C436.721 48.4802 437.699 46.4638 437.699 43.9054V39.6124C436.352 41.4337 434.679 42.843 432.68 43.8403C430.681 44.7943 428.508 45.2713 426.162 45.2713C423.294 45.2713 420.709 44.5992 418.406 43.2549C416.102 41.8673 414.299 39.9593 412.996 37.531C411.692 35.1026 411.04 32.3491 411.04 29.2703C411.04 26.1915 411.692 23.4596 412.996 21.0746C414.299 18.6462 416.102 16.7599 418.406 15.4157C420.709 14.028 423.294 13.3342 426.162 13.3342C428.552 13.3342 430.768 13.8546 432.81 14.8953C434.853 15.8927 436.482 17.2803 437.699 19.0582V14.1148H445.716ZM428.443 38.5066C431.137 38.5066 433.353 37.6394 435.092 35.9048C436.83 34.1703 437.699 31.9588 437.699 29.2703C437.699 26.5817 436.83 24.3919 435.092 22.7007C433.353 20.9662 431.137 20.0989 428.443 20.0989C425.793 20.0989 423.598 20.9662 421.86 22.7007C420.122 24.3919 419.253 26.5817 419.253 29.2703C419.253 31.9588 420.1 34.1703 421.795 35.9048C423.533 37.6394 425.749 38.5066 428.443 38.5066Z" fill="#3B0024"/>
<path d="M255.15 63.0736H263.37L272.315 92.7483L282.106 63.0736H290.326L300.117 92.7483L309.063 63.0736H317.282L304.167 104.51H296.612L286.277 73.7492L275.821 104.51H268.266L255.15 63.0736Z" fill="#3B0024"/>
<path d="M340.111 72.6032C342.367 72.6032 344.362 73.126 346.094 74.1714C347.867 75.1767 349.237 76.6041 350.204 78.4538C351.211 80.2632 351.715 82.334 351.715 84.6661V104.51H344.523V86.1137C344.523 83.9826 343.918 82.2536 342.71 80.9266C341.501 79.5595 339.929 78.876 337.995 78.876C335.86 78.876 334.046 79.5394 332.556 80.8663C331.105 82.153 330.38 83.7413 330.38 85.6312V104.51H323.006V62.3498H330.38V77.549C331.347 76.0613 332.697 74.8751 334.429 73.9905C336.162 73.0657 338.056 72.6032 340.111 72.6032Z" fill="#3B0024"/>
<path d="M371.417 72.6032C375.527 72.6032 378.771 73.8095 381.148 76.2221C383.566 78.5945 384.775 81.771 384.775 85.7518V104.51H377.582V100.83C376.454 102.198 375.004 103.283 373.231 104.087C371.458 104.851 369.645 105.233 367.791 105.233C365.575 105.233 363.58 104.831 361.808 104.027C360.075 103.183 358.705 102.017 357.698 100.529C356.69 99.0009 356.187 97.2518 356.187 95.2815C356.187 93.271 356.751 91.4817 357.879 89.9135C359.007 88.3453 360.538 87.1189 362.472 86.2343C364.406 85.3497 366.542 84.9074 368.879 84.9074C371.659 84.9074 374.56 85.4502 377.582 86.5359V85.7518C377.582 83.7011 376.958 82.0123 375.709 80.6854C374.5 79.3183 372.586 78.6347 369.967 78.6347C367.469 78.6347 364.648 79.4188 361.505 80.987L358.967 75.8602C363.399 73.6889 367.549 72.6032 371.417 72.6032ZM369.423 99.8654C371.317 99.8654 373.049 99.403 374.621 98.4782C376.233 97.5533 377.22 96.3068 377.582 94.7387V91.1801C375.165 90.4161 372.626 90.0341 369.967 90.0341C368.073 90.0341 366.482 90.5166 365.192 91.4817C363.903 92.4065 363.258 93.5927 363.258 95.0402C363.258 96.4878 363.842 97.6538 365.011 98.5385C366.179 99.4231 367.65 99.8654 369.423 99.8654Z" fill="#3B0024"/>
<path d="M408.832 102.76C407.946 103.524 406.898 104.128 405.689 104.57C404.521 105.012 403.332 105.233 402.123 105.233C399.544 105.233 397.429 104.389 395.777 102.7C394.165 101.011 393.359 98.8601 393.359 96.2465V79.4188H388.826V73.327H393.359V64.7624H400.491V73.327H407.563V79.4188H400.491V95.3418C400.491 96.3873 400.794 97.2518 401.398 97.9353C402.002 98.6189 402.728 98.9607 403.574 98.9607C404.178 98.9607 404.762 98.8601 405.327 98.6591C405.931 98.4178 406.394 98.1364 406.717 97.8147L408.832 102.76Z" fill="#3B0024"/>
<path d="M255.15 119.84H263.37L272.315 149.515L282.106 119.84H290.326L300.117 149.515L309.063 119.84H317.282L304.167 161.276H296.612L286.277 130.516L275.821 161.276H268.266L255.15 119.84Z" fill="#3B0024"/>
<path d="M333.433 156.089C335.045 156.089 336.637 155.788 338.208 155.184C339.82 154.581 341.129 153.797 342.137 152.832L346.368 157.175C345.038 158.582 343.164 159.748 340.747 160.673C338.329 161.558 335.972 162 333.675 162C330.694 162 327.954 161.296 325.455 159.889C322.957 158.482 320.963 156.531 319.472 154.038C318.021 151.545 317.296 148.731 317.296 145.594C317.296 142.498 318.001 139.724 319.411 137.271C320.822 134.818 322.736 132.888 325.153 131.481C327.611 130.073 330.311 129.37 333.252 129.37C338.047 129.37 341.794 131.018 344.494 134.316C347.234 137.613 348.604 142.116 348.604 147.826H324.428C324.831 150.319 325.838 152.33 327.45 153.857C329.062 155.345 331.056 156.089 333.433 156.089ZM333.373 135.281C331.157 135.281 329.243 135.984 327.631 137.392C326.02 138.759 324.972 140.608 324.488 142.941H341.472C341.109 140.649 340.223 138.799 338.813 137.392C337.443 135.984 335.629 135.281 333.373 135.281Z" fill="#3B0024"/>
<path d="M387.458 162C383.59 162 379.984 161.035 376.639 159.105C373.295 157.135 370.615 154.501 368.601 151.204C366.626 147.906 365.639 144.348 365.639 140.528C365.639 136.708 366.626 133.17 368.601 129.913C370.615 126.615 373.295 124.002 376.639 122.072C379.984 120.101 383.59 119.116 387.458 119.116C390.44 119.116 393.28 119.719 395.98 120.926C398.72 122.092 401.117 123.72 403.172 125.811L397.793 130.817C396.463 129.33 394.892 128.164 393.079 127.319C391.306 126.435 389.432 125.992 387.458 125.992C384.96 125.992 382.623 126.656 380.447 127.983C378.271 129.309 376.538 131.099 375.249 133.351C373.96 135.562 373.315 137.955 373.315 140.528C373.315 143.142 373.96 145.574 375.249 147.826C376.538 150.038 378.271 151.807 380.447 153.134C382.623 154.461 384.96 155.124 387.458 155.124C389.432 155.124 391.306 154.702 393.079 153.857C394.892 153.013 396.463 151.827 397.793 150.299L403.172 155.245C401.158 157.376 398.78 159.045 396.04 160.251C393.341 161.417 390.48 162 387.458 162Z" fill="#3B0024"/>
<path d="M421.986 129.37C426.096 129.37 429.34 130.576 431.717 132.989C434.135 135.361 435.344 138.538 435.344 142.518V161.276H428.151V157.597C427.023 158.964 425.573 160.05 423.8 160.854C422.027 161.618 420.214 162 418.36 162C416.144 162 414.149 161.598 412.377 160.794C410.644 159.949 409.274 158.783 408.267 157.295C407.259 155.767 406.756 154.018 406.756 152.048C406.756 150.038 407.32 148.248 408.448 146.68C409.576 145.112 411.107 143.885 413.041 143.001C414.975 142.116 417.111 141.674 419.448 141.674C422.228 141.674 425.129 142.217 428.151 143.302V142.518C428.151 140.468 427.527 138.779 426.278 137.452C425.069 136.085 423.155 135.401 420.536 135.401C418.038 135.401 415.217 136.185 412.074 137.754L409.536 132.627C413.968 130.455 418.118 129.37 421.986 129.37ZM419.992 156.632C421.886 156.632 423.618 156.17 425.19 155.245C426.802 154.32 427.789 153.073 428.151 151.505V147.947C425.734 147.183 423.195 146.801 420.536 146.801C418.642 146.801 417.051 147.283 415.761 148.248C414.472 149.173 413.827 150.359 413.827 151.807C413.827 153.254 414.411 154.42 415.58 155.305C416.748 156.19 418.219 156.632 419.992 156.632Z" fill="#3B0024"/>
<path d="M458.667 129.37C460.924 129.37 462.938 129.893 464.711 130.938C466.484 131.943 467.854 133.371 468.821 135.22C469.828 137.03 470.332 139.101 470.332 141.433V161.276H463.14V142.88C463.14 140.749 462.515 139.02 461.266 137.693C460.057 136.326 458.486 135.643 456.552 135.643C454.416 135.643 452.623 136.306 451.173 137.633C449.722 138.92 448.997 140.508 448.997 142.398V161.276H441.623V130.094H448.997V134.195C449.964 132.707 451.294 131.541 452.986 130.697C454.719 129.812 456.612 129.37 458.667 129.37Z" fill="#3B0024"/>
</svg>
