<svg width="471" height="162" viewBox="0 0 471 162" fill="none" xmlns="http://www.w3.org/2000/svg">
<path d="M280.75 24.0157H299.795V41.9863C297.635 44.2272 294.936 45.9941 291.698 47.2869C288.502 48.5798 285.285 49.2262 282.046 49.2262C277.857 49.2262 273.949 48.1919 270.321 46.1234C266.737 44.0117 263.865 41.189 261.706 37.6552C259.59 34.1214 258.532 30.3076 258.532 26.2135C258.532 22.1195 259.59 18.3056 261.706 14.7719C263.865 11.2381 266.737 8.43691 270.321 6.36836C273.949 4.29981 277.857 3.26553 282.046 3.26553C285.328 3.26553 288.567 3.91195 291.762 5.2048C294.958 6.49764 297.635 8.24299 299.795 10.4408L294.029 15.8061C292.648 14.2116 290.855 12.9619 288.653 12.0569C286.451 11.1088 284.248 10.6348 282.046 10.6348C279.325 10.6348 276.777 11.3458 274.402 12.7679C272.07 14.1901 270.213 16.1078 268.831 18.5211C267.45 20.8913 266.759 23.4555 266.759 26.2135C266.759 29.0147 267.45 31.622 268.831 34.0353C270.213 36.4055 272.07 38.3017 274.402 39.7238C276.777 41.1459 279.325 41.857 282.046 41.857C283.73 41.857 285.436 41.5769 287.163 41.0166C288.934 40.4564 290.51 39.6591 291.892 38.6249V30.6092H280.75V24.0157Z" fill="white"/>
<path d="M306.821 15.0304H314.724V48.4505H306.821V15.0304ZM310.772 9.98833C309.52 9.98833 308.44 9.53583 307.533 8.63084C306.67 7.72585 306.238 6.67003 306.238 5.46337C306.238 4.25671 306.67 3.22244 307.533 2.36054C308.44 1.45555 309.52 1.00305 310.772 1.00305C311.981 1.00305 313.018 1.45555 313.881 2.36054C314.745 3.22244 315.177 4.25671 315.177 5.46337C315.177 6.67003 314.745 7.72585 313.881 8.63084C313.018 9.53583 311.981 9.98833 310.772 9.98833Z" fill="white"/>
<path d="M319.605 15.0304H327.961L337.677 39.3359L347.199 15.0304H355.62L341.434 48.4505H333.985L319.605 15.0304Z" fill="white"/>
<path d="M360.527 15.0304H368.43V48.4505H360.527V15.0304ZM364.479 9.98833C363.226 9.98833 362.147 9.53583 361.24 8.63084C360.376 7.72585 359.944 6.67003 359.944 5.46337C359.944 4.25671 360.376 3.22244 361.24 2.36054C362.147 1.45555 363.226 1.00305 364.479 1.00305C365.688 1.00305 366.724 1.45555 367.588 2.36054C368.451 3.22244 368.883 4.25671 368.883 5.46337C368.883 6.67003 368.451 7.72585 367.588 8.63084C366.724 9.53583 365.688 9.98833 364.479 9.98833Z" fill="white"/>
<path d="M394.039 14.2547C396.458 14.2547 398.617 14.815 400.517 15.9354C402.417 17.0128 403.885 18.5427 404.922 20.525C406.001 22.4643 406.541 24.6837 406.541 27.1832V48.4505H398.833V28.7346C398.833 26.4506 398.164 24.5975 396.825 23.1754C395.529 21.7101 393.845 20.9775 391.772 20.9775C389.483 20.9775 387.562 21.6886 386.007 23.1107C384.452 24.4897 383.675 26.192 383.675 28.2175V48.4505H375.772V15.0304H383.675V19.4261C384.712 17.8316 386.137 16.5818 387.95 15.6769C389.807 14.7288 391.837 14.2547 394.039 14.2547Z" fill="white"/>
<path d="M446.062 15.0304V44.8952C446.062 47.7394 445.306 50.2605 443.794 52.4583C442.326 54.6992 440.253 56.4446 437.576 57.6943C434.942 58.9441 431.94 59.569 428.572 59.569C425.765 59.569 423.087 59.1596 420.54 58.3408C417.992 57.522 415.876 56.4446 414.192 55.1086L417.106 49.3555C418.272 50.4329 419.762 51.2732 421.576 51.8765C423.433 52.523 425.355 52.8462 427.341 52.8462C430.623 52.8462 433.236 52.1136 435.179 50.6483C437.122 49.1831 438.094 47.1792 438.094 44.6366V40.3702C436.755 42.1802 435.093 43.5808 433.106 44.572C431.12 45.52 428.961 45.9941 426.629 45.9941C423.778 45.9941 421.209 45.3261 418.92 43.9902C416.631 42.6111 414.839 40.715 413.544 38.3016C412.248 35.8883 411.6 33.1518 411.6 30.0921C411.6 27.0323 412.248 24.3174 413.544 21.9472C414.839 19.5338 416.631 17.6592 418.92 16.3233C421.209 14.9442 423.778 14.2547 426.629 14.2547C429.004 14.2547 431.206 14.7719 433.236 15.8061C435.265 16.7973 436.885 18.1764 438.094 19.9432V15.0304H446.062ZM428.896 39.2713C431.573 39.2713 433.776 38.4094 435.503 36.6856C437.23 34.9618 438.094 32.764 438.094 30.0921C438.094 27.4202 437.23 25.2439 435.503 23.5632C433.776 21.8394 431.573 20.9775 428.896 20.9775C426.262 20.9775 424.081 21.8394 422.353 23.5632C420.626 25.2439 419.762 27.4202 419.762 30.0921C419.762 32.764 420.604 34.9618 422.289 36.6856C424.016 38.4094 426.218 39.2713 428.896 39.2713Z" fill="white"/>
<path d="M256.676 63.6861H264.845L273.734 93.1771L283.465 63.6861H291.634L301.365 93.1771L310.254 63.6861H318.423L305.389 104.866H297.881L287.61 74.2957L277.218 104.866H269.71L256.676 63.6861Z" fill="white"/>
<path d="M341.11 73.1568C343.353 73.1568 345.335 73.6763 347.057 74.7152C348.819 75.7143 350.18 77.1329 351.141 78.9711C352.142 80.7693 352.643 82.8273 352.643 85.145V104.866H345.495V86.5836C345.495 84.4657 344.894 82.7473 343.693 81.4286C342.492 80.07 340.93 79.3906 339.008 79.3906C336.885 79.3906 335.083 80.05 333.602 81.3687C332.16 82.6474 331.44 84.2259 331.44 86.104V104.866H324.112V62.9668H331.44V78.0719C332.401 76.5934 333.742 75.4146 335.464 74.5354C337.186 73.6163 339.068 73.1568 341.11 73.1568Z" fill="white"/>
<path d="M372.223 73.1568C376.308 73.1568 379.531 74.3556 381.894 76.7532C384.296 79.1109 385.498 82.2678 385.498 86.2239V104.866H378.35V101.209C377.229 102.568 375.787 103.647 374.025 104.446C372.263 105.205 370.461 105.585 368.619 105.585C366.417 105.585 364.435 105.185 362.673 104.386C360.951 103.547 359.589 102.388 358.588 100.909C357.587 99.391 357.087 97.6527 357.087 95.6946C357.087 93.6966 357.647 91.9183 358.768 90.3598C359.89 88.8014 361.411 87.5826 363.333 86.7034C365.255 85.8243 367.378 85.3847 369.7 85.3847C372.463 85.3847 375.346 85.9242 378.35 87.0032V86.2239C378.35 84.1859 377.729 82.5076 376.488 81.1889C375.286 79.8302 373.384 79.1509 370.782 79.1509C368.299 79.1509 365.496 79.9301 362.372 81.4886L359.85 76.3936C364.254 74.2357 368.379 73.1568 372.223 73.1568ZM370.241 100.25C372.123 100.25 373.845 99.7906 375.407 98.8715C377.008 97.9524 377.989 96.7136 378.35 95.1551V91.6186C375.947 90.8594 373.424 90.4797 370.782 90.4797C368.899 90.4797 367.318 90.9593 366.036 91.9183C364.755 92.8374 364.114 94.0162 364.114 95.4548C364.114 96.8934 364.695 98.0523 365.856 98.9314C367.017 99.8105 368.479 100.25 370.241 100.25Z" fill="white"/>
<path d="M409.406 103.127C408.525 103.887 407.484 104.486 406.283 104.926C405.121 105.365 403.94 105.585 402.739 105.585C400.176 105.585 398.074 104.746 396.432 103.067C394.83 101.389 394.029 99.2511 394.029 96.6537V79.9301H389.524V73.8761H394.029V65.3644H401.117V73.8761H408.145V79.9301H401.117V95.7545C401.117 96.7935 401.417 97.6527 402.018 98.332C402.619 99.0113 403.339 99.351 404.18 99.351C404.781 99.351 405.362 99.2511 405.922 99.0513C406.523 98.8115 406.983 98.5318 407.304 98.2121L409.406 103.127Z" fill="white"/>
<path d="M256.676 120.101H264.845L273.734 149.592L283.465 120.101H291.634L301.365 149.592L310.254 120.101H318.423L305.389 161.281H297.881L287.61 130.711L277.218 161.281H269.71L256.676 120.101Z" fill="white"/>
<path d="M334.474 156.126C336.076 156.126 337.658 155.826 339.219 155.227C340.821 154.627 342.123 153.848 343.124 152.889L347.328 157.205C346.007 158.603 344.145 159.762 341.742 160.681C339.34 161.56 336.997 162 334.715 162C331.751 162 329.028 161.301 326.546 159.902C324.063 158.503 322.081 156.565 320.599 154.088C319.158 151.61 318.437 148.813 318.437 145.696C318.437 142.619 319.138 139.862 320.539 137.424C321.941 134.987 323.843 133.068 326.245 131.67C328.688 130.271 331.371 129.572 334.294 129.572C339.059 129.572 342.783 131.21 345.466 134.487C348.189 137.764 349.551 142.239 349.551 147.914H325.524C325.925 150.391 326.926 152.389 328.528 153.908C330.13 155.386 332.112 156.126 334.474 156.126ZM334.414 135.446C332.212 135.446 330.31 136.145 328.708 137.544C327.106 138.903 326.065 140.741 325.585 143.059H342.463C342.103 140.781 341.222 138.943 339.82 137.544C338.459 136.145 336.657 135.446 334.414 135.446Z" fill="white"/>
<path d="M388.164 162C384.32 162 380.736 161.041 377.412 159.123C374.089 157.165 371.426 154.547 369.424 151.271C367.462 147.994 366.481 144.457 366.481 140.661C366.481 136.865 367.462 133.348 369.424 130.111C371.426 126.835 374.089 124.237 377.412 122.319C380.736 120.361 384.32 119.382 388.164 119.382C391.127 119.382 393.951 119.981 396.633 121.18C399.356 122.339 401.739 123.957 403.781 126.035L398.435 131.01C397.114 129.532 395.552 128.373 393.75 127.534C391.988 126.655 390.126 126.215 388.164 126.215C385.681 126.215 383.359 126.875 381.197 128.193C379.034 129.512 377.312 131.29 376.031 133.528C374.75 135.726 374.109 138.103 374.109 140.661C374.109 143.258 374.75 145.676 376.031 147.914C377.312 150.112 379.034 151.87 381.197 153.189C383.359 154.507 385.681 155.167 388.164 155.167C390.126 155.167 391.988 154.747 393.75 153.908C395.552 153.069 397.114 151.89 398.435 150.371L403.781 155.287C401.779 157.404 399.416 159.063 396.694 160.262C394.011 161.421 391.167 162 388.164 162Z" fill="white"/>
<path d="M422.479 129.572C426.563 129.572 429.787 130.771 432.15 133.168C434.552 135.526 435.753 138.683 435.753 142.639V161.281H428.606V157.624C427.484 158.983 426.043 160.062 424.281 160.861C422.519 161.62 420.717 162 418.875 162C416.673 162 414.69 161.6 412.929 160.801C411.207 159.962 409.845 158.803 408.844 157.325C407.843 155.806 407.342 154.068 407.342 152.11C407.342 150.112 407.903 148.333 409.024 146.775C410.146 145.216 411.667 143.998 413.589 143.119C415.511 142.239 417.634 141.8 419.956 141.8C422.719 141.8 425.602 142.339 428.606 143.418V142.639C428.606 140.601 427.985 138.923 426.744 137.604C425.542 136.245 423.64 135.566 421.037 135.566C418.555 135.566 415.752 136.345 412.628 137.904L410.105 132.809C414.51 130.651 418.635 129.572 422.479 129.572ZM420.497 156.665C422.379 156.665 424.101 156.206 425.662 155.287C427.264 154.367 428.245 153.129 428.606 151.57V148.034C426.203 147.274 423.68 146.895 421.037 146.895C419.155 146.895 417.574 147.374 416.292 148.333C415.011 149.253 414.37 150.431 414.37 151.87C414.37 153.309 414.951 154.467 416.112 155.347C417.273 156.226 418.735 156.665 420.497 156.665Z" fill="white"/>
<path d="M458.933 129.572C461.175 129.572 463.177 130.091 464.939 131.13C466.701 132.129 468.063 133.548 469.024 135.386C470.025 137.184 470.525 139.242 470.525 141.56V161.281H463.378V142.999C463.378 140.881 462.757 139.162 461.515 137.844C460.314 136.485 458.752 135.806 456.83 135.806C454.708 135.806 452.926 136.465 451.485 137.784C450.043 139.063 449.322 140.641 449.322 142.519V161.281H441.994V130.291H449.322V134.367C450.283 132.889 451.605 131.73 453.287 130.891C455.008 130.011 456.89 129.572 458.933 129.572Z" fill="white"/>
<path opacity="0.65" d="M96.8874 96.8889L64.106 129.67L94.4042 159.968C95.7751 161.339 97.9996 161.339 99.3705 159.968L129.669 129.67L96.8874 96.8889Z" fill="white"/>
<path opacity="0.75" d="M129.672 64.1077L96.8901 96.889L129.672 129.67L162.453 96.889L129.672 64.1077Z" fill="white"/>
<path opacity="0.75" d="M64.1112 64.1077L31.3298 96.889L64.1112 129.67L96.8926 96.889L64.1112 64.1077Z" fill="white"/>
<path opacity="0.95" d="M127.188 1.02875L96.8901 31.3264L129.672 64.1078L162.453 31.3264L132.155 1.02875C130.784 -0.342916 128.559 -0.342916 127.188 1.02875Z" fill="white" fill-opacity="0.95"/>
<path opacity="0.95" d="M61.628 1.02875L31.3298 31.3264L64.1112 64.1078L96.8926 31.3264L66.5944 1.02875C65.2235 -0.342916 62.999 -0.342916 61.628 1.02875Z" fill="white" fill-opacity="0.95"/>
<path opacity="0.85" d="M162.453 31.326L129.671 64.1074L162.453 96.8888L192.751 66.5906C194.122 65.2196 194.122 62.9952 192.751 61.6242L162.453 31.326Z" fill="white"/>
<path opacity="0.85" d="M31.3265 31.326L1.02875 61.6242C-0.342917 62.9952 -0.342917 65.2196 1.02875 66.5906L31.3265 96.8888L64.1079 64.1074L31.3265 31.326Z" fill="white"/>
<path opacity="0.85" d="M96.8874 31.326L64.106 64.1074L96.8874 96.8888L129.669 64.1074L96.8874 31.326Z" fill="white"/>
<path d="M187.728 101.582L160.125 129.185C159.211 130.099 159.211 131.582 160.125 132.496L187.728 160.099C188.643 161.013 190.125 161.013 191.039 160.099L218.642 132.496C219.557 131.582 219.557 130.099 218.642 129.185L191.039 101.582C190.125 100.668 188.643 100.668 187.728 101.582Z" fill="white"/>
</svg>
