<svg xmlns="http://www.w3.org/2000/svg" viewBox="0 0 80 80">
  <defs>
    <linearGradient id="bg" x1="0" y1="0" x2="0" y2="1">
      <stop offset="0%" stop-color="#1a0000"/>
      <stop offset="100%" stop-color="#0a0000"/>
    </linearGradient>
  </defs>
  <rect width="80" height="80" fill="url(#bg)" rx="4"/>
  <rect width="80" height="3" fill="#DC0000" rx="0"/>
  <!-- Prancing horse silhouette -->
  <g transform="translate(20,10) scale(0.5)">
    <path d="M40 8 C36 6 30 7 26 11 C23 14 22 18 24 22 C20 21 16 22 14 25 C12 28 14 32 18 32 C16 35 16 39 19 41 L17 54 C16 57 18 60 21 60 L23 60 L23 72 C23 74 25 76 28 76 L36 76 C39 76 41 74 41 72 L41 60 L43 60 C46 60 48 57 47 54 L45 41 C48 39 50 36 49 32 C53 32 55 28 53 25 C51 22 47 21 44 22 C46 18 46 14 43 11 C39 7 44 8 40 8 Z" fill="#DC0000"/>
    <path d="M32 8 C29 5 29 2 32 1 L36 1 C40 2 41 5 39 8 Z" fill="#DC0000"/>
    <path d="M43 20 C46 16 51 14 54 16 C52 20 49 24 45 24 Z" fill="#DC0000"/>
  </g>
  <!-- SF wordmark -->
  <text x="40" y="72" text-anchor="middle" font-family="Georgia, 'Times New Roman', serif" font-style="italic" font-weight="900" font-size="11" fill="rgba(255,255,255,0.35)" letter-spacing="3">SCUDERIA FERRARI</text>
</svg>
